<mxfile host="app.diagrams.net" agent="Mozilla/5.0 (Windows NT 10.0; Win64; x64) AppleWebKit/537.36 (KHTML, like Gecko) Chrome/126.0.0.0 Safari/537.36 Edg/126.0.0.0" version="26.1.1">
  <diagram name="Page-1" id="N30Slkkd7gLLlGxz_cUb">
    <mxGraphModel dx="832" dy="481" grid="1" gridSize="10" guides="1" tooltips="1" connect="1" arrows="1" fold="1" page="1" pageScale="1" pageWidth="850" pageHeight="1100" math="0" shadow="0">
      <root>
        <mxCell id="0" />
        <mxCell id="1" parent="0" />
        <mxCell id="Ly-1oh3VwdqEm0Ps7OcA-8" value="Classname" style="swimlane;fontStyle=0;childLayout=stackLayout;horizontal=1;startSize=30;horizontalStack=0;resizeParent=1;resizeParentMax=0;resizeLast=0;collapsible=1;marginBottom=0;whiteSpace=wrap;html=1;" vertex="1" parent="1">
          <mxGeometry x="530" y="100" width="140" height="110" as="geometry" />
        </mxCell>
        <mxCell id="Ly-1oh3VwdqEm0Ps7OcA-3" value="+ skeleton:type" style="rounded=0;whiteSpace=wrap;html=1;labelBackgroundColor=none;align=left;" vertex="1" parent="Ly-1oh3VwdqEm0Ps7OcA-8">
          <mxGeometry y="30" width="140" height="20" as="geometry" />
        </mxCell>
        <mxCell id="Ly-1oh3VwdqEm0Ps7OcA-4" value="+ sans:type" style="rounded=0;whiteSpace=wrap;html=1;labelBackgroundColor=none;align=left;" vertex="1" parent="Ly-1oh3VwdqEm0Ps7OcA-8">
          <mxGeometry y="50" width="140" height="20" as="geometry" />
        </mxCell>
        <mxCell id="Ly-1oh3VwdqEm0Ps7OcA-5" value="+ badTime(yes):" style="rounded=0;whiteSpace=wrap;html=1;labelBackgroundColor=none;align=left;" vertex="1" parent="Ly-1oh3VwdqEm0Ps7OcA-8">
          <mxGeometry y="70" width="140" height="20" as="geometry" />
        </mxCell>
        <mxCell id="Ly-1oh3VwdqEm0Ps7OcA-6" value="+ funny(yes):" style="rounded=0;whiteSpace=wrap;html=1;labelBackgroundColor=none;align=left;" vertex="1" parent="Ly-1oh3VwdqEm0Ps7OcA-8">
          <mxGeometry y="90" width="140" height="20" as="geometry" />
        </mxCell>
      </root>
    </mxGraphModel>
  </diagram>
</mxfile>
